<svg width="836px" height="604px" version="1.1" xmlns="http://www.w3.org/2000/svg" xmlns:xlink="http://www.w3.org/1999/xlink"><defs xmlns="http://www.w3.org/2000/svg"/><ellipse xmlns="http://www.w3.org/2000/svg" cx="332" cy="50" rx="50" ry="50" fill="#ffffff" stroke="#000000"/><ellipse xmlns="http://www.w3.org/2000/svg" cx="332" cy="50" rx="46" ry="46" fill="none" stroke="#000000"/><g xmlns="http://www.w3.org/2000/svg" text-anchor="middle" font-size="12px" font-family="Verdana" fill="#000000"><text x="332" y="53.5">No connection</text></g><rect xmlns="http://www.w3.org/2000/svg" x="32" y="170" width="120" height="60" rx="9" ry="9" shape-rendering="crispEdges" fill="#ffffff" stroke="#000000"/><g xmlns="http://www.w3.org/2000/svg" text-anchor="middle" font-size="12px" font-family="Verdana" fill="#000000"><text x="92" y="203.5">Req</text></g><path xmlns="http://www.w3.org/2000/svg" d="M 92 169 L 89 163 L 92 164.5 L 95 163 Z" fill="#000000" stroke="#000000" stroke-miterlimit="10"/><path xmlns="http://www.w3.org/2000/svg" d="M 282 50 L 102 50 C 92 50 92 50 92 60 L 92 163.5" fill="none" stroke="#000000" stroke-miterlimit="10"/><rect xmlns="http://www.w3.org/2000/svg" x="160.5" y="41.5" width="43" height="14" shape-rendering="crispEdges" fill="#ffffff"/><g xmlns="http://www.w3.org/2000/svg" text-anchor="middle" font-size="11px" font-family="Verdana" fill="#000000"><text x="182" y="52.88">Send()</text></g><path xmlns="http://www.w3.org/2000/svg" d="M 92 310 L 132 350 L 92 390 L 52 350 Z" fill="#ffffff" stroke="#000000" stroke-miterlimit="10"/><g xmlns="http://www.w3.org/2000/svg" text-anchor="middle" font-size="12px" font-family="Verdana" fill="#000000"><text x="92" y="353.5">More?</text></g><path xmlns="http://www.w3.org/2000/svg" d="M 92 309 L 89 303 L 92 304.5 L 95 303 Z" fill="#000000" stroke="#000000" stroke-miterlimit="10"/><path xmlns="http://www.w3.org/2000/svg" d="M 92 230 L 92 260 C 92 270 92 270 92 270 L 92 270 L 92 303.5" fill="none" stroke="#000000" stroke-miterlimit="10"/><rect xmlns="http://www.w3.org/2000/svg" x="79.5" y="261.5" width="25" height="14" shape-rendering="crispEdges" fill="#ffffff"/><g xmlns="http://www.w3.org/2000/svg" text-anchor="middle" font-size="11px" font-family="Verdana" fill="#000000"><text x="92" y="272.88">Ack</text></g><ellipse xmlns="http://www.w3.org/2000/svg" cx="332" cy="550" rx="50" ry="50" fill="#ffffff" stroke="#000000"/><ellipse xmlns="http://www.w3.org/2000/svg" cx="332" cy="550" rx="46" ry="46" fill="none" stroke="#000000"/><g xmlns="http://www.w3.org/2000/svg" text-anchor="middle" font-size="12px" font-family="Verdana" fill="#000000"><text x="332" y="553.5">No connection</text></g><path xmlns="http://www.w3.org/2000/svg" d="M 281 550 L 275 553 L 276.5 550 L 275 547 Z" fill="#000000" stroke="#000000" stroke-miterlimit="10"/><path xmlns="http://www.w3.org/2000/svg" d="M 92 390 L 92 540 C 92 550 92 550 102 550 L 275.5 550" fill="none" stroke="#000000" stroke-miterlimit="10"/><rect xmlns="http://www.w3.org/2000/svg" x="82.5" y="461.5" width="19" height="14" shape-rendering="crispEdges" fill="#ffffff"/><g xmlns="http://www.w3.org/2000/svg" text-anchor="middle" font-size="11px" font-family="Verdana" fill="#000000"><text x="92" y="472.88">No</text></g><rect xmlns="http://www.w3.org/2000/svg" x="222" y="170" width="120" height="60" rx="9" ry="9" shape-rendering="crispEdges" fill="#ffffff" stroke="#000000"/><g xmlns="http://www.w3.org/2000/svg" text-anchor="middle" font-size="12px" font-family="Verdana" fill="#000000"><text x="282" y="203.5">Retransmit</text></g><path xmlns="http://www.w3.org/2000/svg" d="M 221 200 L 215 203 L 216.5 200 L 215 197 Z" fill="#000000" stroke="#000000" stroke-miterlimit="10"/><path xmlns="http://www.w3.org/2000/svg" d="M 152 200 L 177 200 C 187 200 187 200 187 200 L 187 200 L 215.5 200" fill="none" stroke="#000000" stroke-miterlimit="10"/><rect xmlns="http://www.w3.org/2000/svg" x="162" y="191.5" width="50" height="14" shape-rendering="crispEdges" fill="#ffffff"/><g xmlns="http://www.w3.org/2000/svg" text-anchor="middle" font-size="11px" font-family="Verdana" fill="#000000"><text x="187" y="202.88">Timeout</text></g><path xmlns="http://www.w3.org/2000/svg" d="M 133 350 L 139 347 L 137.5 350 L 139 353 Z" fill="#000000" stroke="#000000" stroke-miterlimit="10"/><path xmlns="http://www.w3.org/2000/svg" d="M 282 230 L 282 340 C 282 350 282 350 272 350 L 138.5 350" fill="none" stroke="#000000" stroke-miterlimit="10"/><rect xmlns="http://www.w3.org/2000/svg" x="269.5" y="281.5" width="25" height="14" shape-rendering="crispEdges" fill="#ffffff"/><g xmlns="http://www.w3.org/2000/svg" text-anchor="middle" font-size="11px" font-family="Verdana" fill="#000000"><text x="282" y="292.88">Ack</text></g><path xmlns="http://www.w3.org/2000/svg" d="M 343 220 L 349 217 L 347.5 220 L 349 223 Z" fill="#000000" stroke="#000000" stroke-miterlimit="10"/><path xmlns="http://www.w3.org/2000/svg" d="M 342 180 L 372 180 C 382 180 382 180 382 190 L 382 210 C 382 220 382 220 372 220 L 348.5 220" fill="none" stroke="#000000" stroke-miterlimit="10"/><rect xmlns="http://www.w3.org/2000/svg" x="357" y="191.5" width="50" height="14" shape-rendering="crispEdges" fill="#ffffff"/><g xmlns="http://www.w3.org/2000/svg" text-anchor="middle" font-size="11px" font-family="Verdana" fill="#000000"><text x="382" y="202.88">Timeout</text></g><rect xmlns="http://www.w3.org/2000/svg" x="482" y="170" width="120" height="60" rx="9" ry="9" shape-rendering="crispEdges" fill="#ffffff" stroke="#000000"/><g xmlns="http://www.w3.org/2000/svg" text-anchor="middle" font-size="12px" font-family="Verdana" fill="#000000"><text x="542" y="203.5">Ack</text></g><path xmlns="http://www.w3.org/2000/svg" d="M 542 169 L 539 163 L 542 164.5 L 545 163 Z" fill="#000000" stroke="#000000" stroke-miterlimit="10"/><path xmlns="http://www.w3.org/2000/svg" d="M 382 50 L 532 50 C 542 50 542 50 542 60 L 542 163.5" fill="none" stroke="#000000" stroke-miterlimit="10"/><rect xmlns="http://www.w3.org/2000/svg" x="459" y="41.5" width="26" height="14" shape-rendering="crispEdges" fill="#ffffff"/><g xmlns="http://www.w3.org/2000/svg" text-anchor="middle" font-size="11px" font-family="Verdana" fill="#000000"><text x="472" y="52.88">Req</text></g><path xmlns="http://www.w3.org/2000/svg" d="M 692 310 L 732 350 L 692 390 L 652 350 Z" fill="#ffffff" stroke="#000000" stroke-miterlimit="10"/><g xmlns="http://www.w3.org/2000/svg" text-anchor="middle" font-size="12px" font-family="Verdana" fill="#000000"><text x="692" y="353.5">More?</text></g><path xmlns="http://www.w3.org/2000/svg" d="M 692 309 L 689 303 L 692 304.5 L 695 303 Z" fill="#000000" stroke="#000000" stroke-miterlimit="10"/><path xmlns="http://www.w3.org/2000/svg" d="M 542 230 L 542 260 C 542 270 542 270 552 270 L 682 270 C 692 270 692 270 692 280 L 692 303.5" fill="none" stroke="#000000" stroke-miterlimit="10"/><path xmlns="http://www.w3.org/2000/svg" d="M 692 519 L 689 513 L 692 514.5 L 695 513 Z" fill="#000000" stroke="#000000" stroke-miterlimit="10"/><path xmlns="http://www.w3.org/2000/svg" d="M 692 390 L 692 490 C 692 500 692 500 692 506.75 L 692 513.5" fill="none" stroke="#000000" stroke-miterlimit="10"/><rect xmlns="http://www.w3.org/2000/svg" x="682" y="441.5" width="19" height="14" shape-rendering="crispEdges" fill="#ffffff"/><g xmlns="http://www.w3.org/2000/svg" text-anchor="middle" font-size="11px" font-family="Verdana" fill="#000000"><text x="691.5" y="452.88">No</text></g><path xmlns="http://www.w3.org/2000/svg" d="M 772 231 L 775 237 L 772 235.5 L 769 237 Z" fill="#000000" stroke="#000000" stroke-miterlimit="10"/><path xmlns="http://www.w3.org/2000/svg" d="M 732 350 L 762 350 C 772 350 772 350 772 340 L 772 236.5" fill="none" stroke="#000000" stroke-miterlimit="10"/><rect xmlns="http://www.w3.org/2000/svg" x="735" y="341.5" width="24" height="14" shape-rendering="crispEdges" fill="#ffffff"/><g xmlns="http://www.w3.org/2000/svg" text-anchor="middle" font-size="11px" font-family="Verdana" fill="#000000"><text x="747" y="352.88">Yes</text></g><path xmlns="http://www.w3.org/2000/svg" d="M 31 200 L 25 203 L 26.5 200 L 25 197 Z" fill="#000000" stroke="#000000" stroke-miterlimit="10"/><path xmlns="http://www.w3.org/2000/svg" d="M 52 350 L 22 350 C 12 350 12 350 12 340 L 12 210 C 12 200 12 200 18.75 200 L 25.5 200" fill="none" stroke="#000000" stroke-miterlimit="10"/><rect xmlns="http://www.w3.org/2000/svg" x="0" y="261.5" width="24" height="14" shape-rendering="crispEdges" fill="#ffffff"/><g xmlns="http://www.w3.org/2000/svg" text-anchor="middle" font-size="11px" font-family="Verdana" fill="#000000"><text x="12" y="272.88">Yes</text></g><rect xmlns="http://www.w3.org/2000/svg" x="712" y="170" width="120" height="60" rx="9" ry="9" shape-rendering="crispEdges" fill="#ffffff" stroke="#000000"/><g xmlns="http://www.w3.org/2000/svg" text-anchor="middle" font-size="12px" font-family="Verdana" fill="#000000"><text x="772" y="203.5">Wait</text></g><path xmlns="http://www.w3.org/2000/svg" d="M 603 200 L 609 197 L 607.5 200 L 609 203 Z" fill="#000000" stroke="#000000" stroke-miterlimit="10"/><path xmlns="http://www.w3.org/2000/svg" d="M 712 200 L 667 200 C 657 200 657 200 657 200 L 657 200 L 608.5 200" fill="none" stroke="#000000" stroke-miterlimit="10"/><rect xmlns="http://www.w3.org/2000/svg" x="621.5" y="191.5" width="71" height="14" shape-rendering="crispEdges" fill="#ffffff"/><g xmlns="http://www.w3.org/2000/svg" text-anchor="middle" font-size="11px" font-family="Verdana" fill="#000000"><text x="657" y="202.88">Req (diff #)</text></g><path xmlns="http://www.w3.org/2000/svg" d="M 572 169 L 569 163 L 572 164.5 L 575 163 Z" fill="#000000" stroke="#000000" stroke-miterlimit="10"/><path xmlns="http://www.w3.org/2000/svg" d="M 772 170 L 772 150 C 772 140 772 140 762 140 L 582 140 C 572 140 572 140 572 150 L 572 163.5" fill="none" stroke="#000000" stroke-miterlimit="10"/><rect xmlns="http://www.w3.org/2000/svg" x="639" y="116.5" width="66" height="14" shape-rendering="crispEdges" fill="#ffffff"/><g xmlns="http://www.w3.org/2000/svg" text-anchor="middle" font-size="11px" font-family="Verdana" fill="#000000"><text x="672" y="127.88">Retransmit</text></g><rect xmlns="http://www.w3.org/2000/svg" x="632" y="520" width="120" height="60" rx="9" ry="9" shape-rendering="crispEdges" fill="#ffffff" stroke="#000000"/><g xmlns="http://www.w3.org/2000/svg" text-anchor="middle" font-size="12px" font-family="Verdana" fill="#000000"><text x="692" y="553.5">End Wait</text></g><path xmlns="http://www.w3.org/2000/svg" d="M 383 550 L 389 547 L 387.5 550 L 389 553 Z" fill="#000000" stroke="#000000" stroke-miterlimit="10"/><path xmlns="http://www.w3.org/2000/svg" d="M 632 550 L 388.5 550" shape-rendering="crispEdges" fill="none" stroke="#000000" stroke-miterlimit="10"/><rect xmlns="http://www.w3.org/2000/svg" x="437" y="541" width="50" height="14" shape-rendering="crispEdges" fill="#ffffff"/><g xmlns="http://www.w3.org/2000/svg" text-anchor="middle" font-size="11px" font-family="Verdana" fill="#000000"><text x="462" y="552.38">Timeout</text></g><path xmlns="http://www.w3.org/2000/svg" d="M 532 231 L 535 237 L 532 235.5 L 529 237 Z" fill="#000000" stroke="#000000" stroke-miterlimit="10"/><path xmlns="http://www.w3.org/2000/svg" d="M 632 550 L 542 550 C 532 550 532 550 532 540 L 532 236.5" fill="none" stroke="#000000" stroke-miterlimit="10"/><rect xmlns="http://www.w3.org/2000/svg" x="499" y="381.5" width="66" height="14" shape-rendering="crispEdges" fill="#ffffff"/><g xmlns="http://www.w3.org/2000/svg" text-anchor="middle" font-size="11px" font-family="Verdana" fill="#000000"><text x="532" y="392.88">Retransmit</text></g></svg>